<svg xmlns="http://www.w3.org/2000/svg" viewBox="0 0 16 22">
  <!-- Terracotta pot with 70s-style rubber plant -->
  <path d="M4 14 L3 20 Q3 21 4 21 L12 21 Q13 21 13 20 L12 14 Z" fill="#c06020" stroke="#8b5e3c" stroke-width="1.2"/>
  <rect x="3.5" y="13" width="9" height="2" rx="0.5" fill="#c06020" stroke="#8b5e3c" stroke-width="0.8"/>
  <!-- Soil -->
  <ellipse cx="8" cy="14" rx="4" ry="1" fill="#5c3a20"/>
  <!-- Stem -->
  <line x1="8" y1="14" x2="8" y2="5" stroke="#5c3a20" stroke-width="1.2"/>
  <!-- Leaves - rubber plant style -->
  <ellipse cx="5" cy="8" rx="3" ry="1.5" fill="#7a8a40" stroke="#5c3a20" stroke-width="0.5" transform="rotate(-30 5 8)"/>
  <ellipse cx="11" cy="9" rx="3" ry="1.5" fill="#7a8a40" stroke="#5c3a20" stroke-width="0.5" transform="rotate(25 11 9)"/>
  <ellipse cx="5.5" cy="5" rx="2.8" ry="1.3" fill="#8a9a48" stroke="#5c3a20" stroke-width="0.5" transform="rotate(-20 5.5 5)"/>
  <ellipse cx="10.5" cy="6" rx="2.8" ry="1.3" fill="#8a9a48" stroke="#5c3a20" stroke-width="0.5" transform="rotate(35 10.5 6)"/>
  <ellipse cx="8" cy="3" rx="2.5" ry="1.5" fill="#8a9a48" stroke="#5c3a20" stroke-width="0.5" transform="rotate(5 8 3)"/>
</svg>